<svg width="32" height="32" viewBox="0 0 32 32" fill="none" xmlns="http://www.w3.org/2000/svg">
<path d="M7.09789 20.5907L1.91138 23.6357L2.27815 24.2815L7.46983 21.2365C7.34069 21.0265 7.21154 20.8112 7.09789 20.5907Z" fill="white"/>
<path d="M8.44604 22.5542L4.19971 26.8697L4.97975 27.6625L9.22608 23.347C8.95229 23.1002 8.68883 22.8325 8.44604 22.5542Z" fill="white"/>
<path d="M10.3676 24.2447L7.36621 29.5262L8.32189 30.088L11.3233 24.8064C10.9926 24.6384 10.6724 24.4547 10.3676 24.2499V24.2447Z" fill="white"/>
<path d="M12.4858 25.3001L10.9309 31.2012L12.3515 31.5897L13.9064 25.6939C13.4208 25.5994 12.9456 25.4681 12.4858 25.3054V25.3001Z" fill="white"/>
<path d="M5.97172 15.9707C5.97172 10.5053 10.3317 6.07431 15.7094 6.07431C21.087 6.07431 25.447 10.5053 25.447 15.9707H31.429C31.429 7.15057 24.3932 0 15.7145 0C7.03589 0 0 7.15057 0 15.9707H5.98206H5.97172Z" fill="white"/>
<path d="M6.21959 18.1653L0.433838 19.7404L0.624974 20.4649L6.40556 18.8899C6.33324 18.6536 6.27642 18.4121 6.22476 18.1653H6.21959Z" fill="white"/>
<path d="M24.7546 19.5933L30.5972 21.184L31.1706 19.021L25.3229 17.4302C25.2144 18.181 25.0233 18.9108 24.7598 19.5985L24.7546 19.5933Z" fill="white"/>
<path d="M21.7637 23.7094L26.041 28.0564L27.6011 26.4709L23.3238 22.1239C22.864 22.7119 22.3422 23.2421 21.7637 23.7094Z" fill="white"/>
<path d="M15.7043 25.8671C15.4563 25.8671 15.2135 25.8461 14.9707 25.8303V31.9414H16.443V25.8303C16.2002 25.8513 15.9522 25.8671 15.7043 25.8671Z" fill="white"/>
<path d="M23.5203 21.8506L28.7584 24.9272L29.8639 22.9846L24.6309 19.9134C24.3365 20.6064 23.9594 21.2521 23.5203 21.8506Z" fill="white"/>
<path d="M19.749 24.9641L22.7659 30.2719L24.357 29.3374L21.3401 24.0296C20.8442 24.3919 20.3121 24.7016 19.749 24.9641Z" fill="white"/>
<path d="M17.3262 25.7201L18.8863 31.6422L20.6633 31.1591L19.1032 25.2371C18.535 25.4523 17.9409 25.6151 17.3262 25.7201Z" fill="white"/>
</svg>
